<svg width="275" height="121" viewBox="0 0 275 121" fill="none" xmlns="http://www.w3.org/2000/svg">
<path d="M209.472 93.078L206.929 93.5939V69.0713H214.917V98.8317H204.544L187.336 74.3488L189.84 73.833V98.8317H181.852V69.0713H192.503L209.472 93.078Z" fill="#F1F1F1"/>
<path d="M159.881 99.4657C156.357 99.4657 153.258 98.8176 150.582 97.5214C147.932 96.2251 145.866 94.4131 144.382 92.0851C142.925 89.7572 142.196 87.0457 142.196 83.9506C142.196 80.8556 142.925 78.1441 144.382 75.8161C145.866 73.4882 147.932 71.6761 150.582 70.3799C153.258 69.0837 156.357 68.4355 159.881 68.4355C163.431 68.4355 166.531 69.0837 169.181 70.3799C171.83 71.6761 173.897 73.4882 175.38 75.8161C176.864 78.1441 177.606 80.8556 177.606 83.9506C177.606 87.0457 176.864 89.7572 175.38 92.0851C173.897 94.4131 171.83 96.2251 169.181 97.5214C166.531 98.8176 163.431 99.4657 159.881 99.4657ZM159.881 92.1248C161.815 92.1248 163.484 91.7942 164.889 91.1328C166.293 90.4715 167.366 89.5324 168.108 88.3155C168.876 87.0986 169.26 85.6437 169.26 83.9506C169.26 82.2576 168.876 80.8026 168.108 79.5858C167.366 78.3689 166.293 77.4298 164.889 76.7685C163.484 76.1071 161.815 75.7764 159.881 75.7764C157.974 75.7764 156.318 76.1071 154.913 76.7685C153.509 77.4298 152.423 78.3689 151.655 79.5858C150.886 80.8026 150.502 82.2576 150.502 83.9506C150.502 85.6437 150.886 87.0986 151.655 88.3155C152.423 89.5324 153.509 90.4715 154.913 91.1328C156.318 91.7942 157.974 92.1248 159.881 92.1248Z" fill="#F1F1F1"/>
<path d="M121.566 72.6822H129.832V98.8317H121.566V72.6822ZM110.2 69.0713H141.198V76.3725H110.2V69.0713Z" fill="#F1F1F1"/>
<path d="M269.458 45.5734L266.87 46.0984V21.1396H275V51.4294H264.443L246.929 26.511L249.477 25.986V51.4294H241.347V21.1396H252.187L269.458 45.5734Z" fill="#F1F1F1"/>
<path d="M218.985 52.0753C215.398 52.0753 212.243 51.4156 209.52 50.0964C206.823 48.7771 204.72 46.9328 203.21 44.5634C201.727 42.1941 200.985 39.4344 200.985 36.2842C200.985 33.1341 201.727 30.3744 203.21 28.005C204.72 25.6357 206.823 23.7914 209.52 22.4721C212.243 21.1528 215.398 20.4932 218.985 20.4932C222.598 20.4932 225.753 21.1528 228.45 22.4721C231.146 23.7914 233.25 25.6357 234.76 28.005C236.27 30.3744 237.025 33.1341 237.025 36.2842C237.025 39.4344 236.27 42.1941 234.76 44.5634C233.25 46.9328 231.146 48.7771 228.45 50.0964C225.753 51.4156 222.598 52.0753 218.985 52.0753ZM218.985 44.6038C220.953 44.6038 222.652 44.2673 224.081 43.5942C225.511 42.921 226.603 41.9652 227.358 40.7267C228.14 39.4882 228.531 38.0074 228.531 36.2842C228.531 34.5611 228.14 33.0802 227.358 31.8417C226.603 30.6032 225.511 29.6474 224.081 28.9743C222.652 28.3012 220.953 27.9646 218.985 27.9646C217.043 27.9646 215.358 28.3012 213.929 28.9743C212.5 29.6474 211.394 30.6032 210.612 31.8417C209.83 33.0802 209.439 34.5611 209.439 36.2842C209.439 38.0074 209.83 39.4882 210.612 40.7267C211.394 41.9652 212.5 42.921 213.929 43.5942C215.358 44.2673 217.043 44.6038 218.985 44.6038Z" fill="#F1F1F1"/>
<path d="M179.959 52.0753C176.372 52.0753 173.217 51.4156 170.494 50.0964C167.797 48.7771 165.694 46.9328 164.184 44.5634C162.701 42.1941 161.959 39.4344 161.959 36.2842C161.959 33.1341 162.701 30.3744 164.184 28.005C165.694 25.6357 167.797 23.7914 170.494 22.4721C173.217 21.1528 176.372 20.4932 179.959 20.4932C183.572 20.4932 186.727 21.1528 189.424 22.4721C192.12 23.7914 194.223 25.6357 195.734 28.005C197.244 30.3744 197.999 33.1341 197.999 36.2842C197.999 39.4344 197.244 42.1941 195.734 44.5634C194.223 46.9328 192.12 48.7771 189.424 50.0964C186.727 51.4156 183.572 52.0753 179.959 52.0753ZM179.959 44.6038C181.927 44.6038 183.626 44.2673 185.055 43.5942C186.484 42.921 187.576 41.9652 188.331 40.7267C189.113 39.4882 189.504 38.0074 189.504 36.2842C189.504 34.5611 189.113 33.0802 188.331 31.8417C187.576 30.6032 186.484 29.6474 185.055 28.9743C183.626 28.3012 181.927 27.9646 179.959 27.9646C178.017 27.9646 176.332 28.3012 174.903 28.9743C173.473 29.6474 172.368 30.6032 171.586 31.8417C170.804 33.0802 170.413 34.5611 170.413 36.2842C170.413 38.0074 170.804 39.4882 171.586 40.7267C172.368 41.9652 173.473 42.921 174.903 43.5942C176.332 44.2673 178.017 44.6038 179.959 44.6038Z" fill="#F1F1F1"/>
<path d="M157.618 21.1396V51.4294H149.649V24.1282L151.429 24.3302L139.699 51.4294H131.205L119.434 24.4109L121.254 24.209V51.4294H113.286V21.1396H126.23L137.11 47.1484H133.874L144.674 21.1396H157.618Z" fill="#F1F1F1"/>
<path d="M48.1328 120.001L95.0524 90.3642V75.733L48.1328 105.028M48.1328 120.001V105.028M48.1328 120.001L1.21936 90.7387V75.6084L48.1328 105.028M37.3933 82.894L48.1328 75.8416L58.8785 82.894" stroke="url(#paint0_linear_8_509)" stroke-width="0.544045" stroke-linecap="round"/>
<path fill-rule="evenodd" clip-rule="evenodd" d="M25.4815 59.8691L1 75.2997L47.4781 104.595V88.9707L26.2121 75.5167L38.2063 67.8062L25.4815 59.8691Z" fill="url(#paint1_linear_8_509)"/>
<path fill-rule="evenodd" clip-rule="evenodd" d="M58.0007 67.7653L70.0594 75.5173L48.7935 88.9713V104.595L95.4908 75.5173L70.616 59.7969L58.0007 67.7653Z" fill="url(#paint2_linear_8_509)"/>
<path d="M47.4783 58.5899V42.9659L26.2124 29.5119L47.4783 15.841V0L1.00024 29.2949L47.4783 58.5899Z" fill="url(#paint3_linear_8_509)"/>
<path d="M48.793 58.5899V42.9659L70.0589 29.5119L48.793 15.841V0L95.4903 29.5119L48.793 58.5899Z" fill="url(#paint4_linear_8_509)"/>
<path d="M48.1331 73.9961L95.0527 44.3593V29.7282L48.1331 59.0231M48.1331 73.9961V59.0231M48.1331 73.9961L1.2196 44.7339V29.6035L48.1331 59.0231M37.3936 36.8892L48.1331 29.8367L58.8787 36.8892" stroke="url(#paint5_linear_8_509)" stroke-width="0.544045" stroke-linecap="round"/>
<defs>
<linearGradient id="paint0_linear_8_509" x1="48.1359" y1="75.6084" x2="48.1359" y2="120.001" gradientUnits="userSpaceOnUse">
<stop stop-color="#47BCFC"/>
<stop offset="1" stop-color="#078FD1"/>
</linearGradient>
<linearGradient id="paint1_linear_8_509" x1="24.239" y1="59.8691" x2="24.239" y2="104.595" gradientUnits="userSpaceOnUse">
<stop stop-color="#47BCFC"/>
<stop offset="1" stop-color="#078FD1"/>
</linearGradient>
<linearGradient id="paint2_linear_8_509" x1="72.1422" y1="59.7969" x2="72.1422" y2="104.595" gradientUnits="userSpaceOnUse">
<stop stop-color="#47BCFC"/>
<stop offset="1" stop-color="#078FD1"/>
</linearGradient>
<linearGradient id="paint3_linear_8_509" x1="24.2393" y1="0" x2="24.2393" y2="58.5899" gradientUnits="userSpaceOnUse">
<stop stop-color="#47BCFC"/>
<stop offset="1" stop-color="#078FD1"/>
</linearGradient>
<linearGradient id="paint4_linear_8_509" x1="72.1417" y1="0" x2="72.1417" y2="58.5899" gradientUnits="userSpaceOnUse">
<stop stop-color="#47BCFC"/>
<stop offset="1" stop-color="#078FD1"/>
</linearGradient>
<linearGradient id="paint5_linear_8_509" x1="48.1361" y1="29.6035" x2="48.1361" y2="73.9961" gradientUnits="userSpaceOnUse">
<stop stop-color="#47BCFC"/>
<stop offset="1" stop-color="#078FD1"/>
</linearGradient>
</defs>
</svg>
