<svg width="1080" height="1080" viewBox="0 0 1080 1080" fill="none" xmlns="http://www.w3.org/2000/svg">
<rect width="1080" height="1080" rx="150" fill="black"/>
<path d="M539.079 1030.96L920.424 788.445V668.718L539.079 908.439M539.079 1030.96V908.439M539.079 1030.96L157.783 791.51V667.698L539.079 908.439M451.792 727.316L539.079 669.606L626.415 727.316" stroke="url(#paint0_linear_585_515)" stroke-width="4.4218" stroke-linecap="round"/>
<path fill-rule="evenodd" clip-rule="evenodd" d="M354.977 538.907L156 665.177L533.757 904.898V777.047L360.915 666.952L458.399 603.857L354.977 538.907Z" fill="url(#paint1_linear_585_515)"/>
<path fill-rule="evenodd" clip-rule="evenodd" d="M619.281 603.522L717.289 666.957L544.448 777.052V904.903L923.986 666.957L721.813 538.316L619.281 603.522Z" fill="url(#paint2_linear_585_515)"/>
<path d="M533.759 528.444V400.592L360.917 290.498L533.759 178.627V49L156.002 288.722L533.759 528.444Z" fill="url(#paint3_linear_585_515)"/>
<path d="M544.444 528.444V400.592L717.286 290.498L544.444 178.627V49L923.983 290.498L544.444 528.444Z" fill="url(#paint4_linear_585_515)"/>
<path d="M539.081 654.514L920.426 411.995V292.268L539.081 531.989M539.081 654.514V531.989M539.081 654.514L157.785 415.06V291.248L539.081 531.989M451.794 350.866L539.081 293.156L626.417 350.866" stroke="url(#paint5_linear_585_515)" stroke-width="4.4218" stroke-linecap="round"/>
<defs>
<linearGradient id="paint0_linear_585_515" x1="539.103" y1="667.698" x2="539.103" y2="1030.96" gradientUnits="userSpaceOnUse">
<stop stop-color="#47BCFC"/>
<stop offset="1" stop-color="#078FD1"/>
</linearGradient>
<linearGradient id="paint1_linear_585_515" x1="344.878" y1="538.907" x2="344.878" y2="904.898" gradientUnits="userSpaceOnUse">
<stop stop-color="#47BCFC"/>
<stop offset="1" stop-color="#078FD1"/>
</linearGradient>
<linearGradient id="paint2_linear_585_515" x1="734.217" y1="538.316" x2="734.217" y2="904.903" gradientUnits="userSpaceOnUse">
<stop stop-color="#47BCFC"/>
<stop offset="1" stop-color="#078FD1"/>
</linearGradient>
<linearGradient id="paint3_linear_585_515" x1="344.881" y1="49" x2="344.881" y2="528.444" gradientUnits="userSpaceOnUse">
<stop stop-color="#47BCFC"/>
<stop offset="1" stop-color="#078FD1"/>
</linearGradient>
<linearGradient id="paint4_linear_585_515" x1="734.214" y1="49" x2="734.214" y2="528.444" gradientUnits="userSpaceOnUse">
<stop stop-color="#47BCFC"/>
<stop offset="1" stop-color="#078FD1"/>
</linearGradient>
<linearGradient id="paint5_linear_585_515" x1="539.106" y1="291.248" x2="539.106" y2="654.514" gradientUnits="userSpaceOnUse">
<stop stop-color="#47BCFC"/>
<stop offset="1" stop-color="#078FD1"/>
</linearGradient>
</defs>
</svg>
