<svg width="389" height="1567" viewBox="0 0 389 1567" fill="none" xmlns="http://www.w3.org/2000/svg">
<path d="M148.404 177L148.404 1567" stroke="url(#paint0_linear_198_1289)"/>
<path d="M244.404 177L244.404 1567" stroke="url(#paint1_linear_198_1289)"/>
<path d="M100.404 158L100.404 1567" stroke="url(#paint2_linear_198_1289)"/>
<path d="M196.404 193L196.404 1567" stroke="url(#paint3_linear_198_1289)"/>
<path d="M292.404 158L292.404 1567" stroke="url(#paint4_linear_198_1289)"/>
<path d="M100.404 358L100.404 497" stroke="url(#paint5_linear_198_1289)" stroke-width="3" stroke-linecap="round"/>
<path d="M196.404 497L196.404 636" stroke="url(#paint6_linear_198_1289)" stroke-width="3" stroke-linecap="round"/>
<path d="M292.404 560L292.404 809.586" stroke="url(#paint7_linear_198_1289)" stroke-width="3" stroke-linecap="round"/>
<path fill-rule="evenodd" clip-rule="evenodd" d="M197.911 0.929199L389.225 75.5263L198.905 145.697V192.03L386.037 118.07L386.772 119.93L197.916 194.571L2.55646 121.937L3.25343 120.063L196.905 192.061V145.705L0 75.5264L197.911 0.929199ZM197.899 143.936L383.585 75.474L197.899 3.07113L5.8099 75.4739L197.899 143.936Z" fill="#1D1D1D"/>
<path fill-rule="evenodd" clip-rule="evenodd" d="M197.911 0.929199L389.225 75.5263L198.905 145.697V192.03L386.037 118.07L386.772 119.93L197.916 194.571L2.55646 121.937L3.25343 120.063L196.905 192.061V145.705L0 75.5264L197.911 0.929199ZM197.899 143.936L383.585 75.474L197.899 3.07113L5.8099 75.4739L197.899 143.936Z" fill="url(#paint8_linear_198_1289)"/>
<path d="M197.904 193.5L386.404 119L197.904 52L5.4043 123.5L197.904 193.5Z" fill="url(#paint9_linear_198_1289)"/>
<defs>
<linearGradient id="paint0_linear_198_1289" x1="148.904" y1="1567" x2="148.904" y2="177" gradientUnits="userSpaceOnUse">
<stop stop-color="#363636" stop-opacity="0"/>
<stop offset="1" stop-color="#363636"/>
</linearGradient>
<linearGradient id="paint1_linear_198_1289" x1="244.904" y1="1567" x2="244.904" y2="177" gradientUnits="userSpaceOnUse">
<stop stop-color="#363636" stop-opacity="0"/>
<stop offset="1" stop-color="#363636"/>
</linearGradient>
<linearGradient id="paint2_linear_198_1289" x1="100.904" y1="1567" x2="100.904" y2="158" gradientUnits="userSpaceOnUse">
<stop stop-color="#363636" stop-opacity="0"/>
<stop offset="1" stop-color="#363636"/>
</linearGradient>
<linearGradient id="paint3_linear_198_1289" x1="196.904" y1="1567" x2="196.904" y2="193" gradientUnits="userSpaceOnUse">
<stop stop-color="#363636" stop-opacity="0"/>
<stop offset="1" stop-color="#363636"/>
</linearGradient>
<linearGradient id="paint4_linear_198_1289" x1="292.904" y1="1567" x2="292.904" y2="158" gradientUnits="userSpaceOnUse">
<stop stop-color="#363636" stop-opacity="0"/>
<stop offset="1" stop-color="#363636"/>
</linearGradient>
<linearGradient id="paint5_linear_198_1289" x1="100.904" y1="497" x2="100.904" y2="358" gradientUnits="userSpaceOnUse">
<stop stop-color="white"/>
<stop offset="1" stop-color="white" stop-opacity="0"/>
</linearGradient>
<linearGradient id="paint6_linear_198_1289" x1="196.904" y1="636" x2="196.904" y2="497" gradientUnits="userSpaceOnUse">
<stop stop-color="white"/>
<stop offset="1" stop-color="white" stop-opacity="0"/>
</linearGradient>
<linearGradient id="paint7_linear_198_1289" x1="292.904" y1="809.586" x2="292.904" y2="560" gradientUnits="userSpaceOnUse">
<stop stop-color="white"/>
<stop offset="1" stop-color="white" stop-opacity="0"/>
</linearGradient>
<linearGradient id="paint8_linear_198_1289" x1="194.405" y1="250" x2="181.34" y2="4.39736" gradientUnits="userSpaceOnUse">
<stop stop-color="white"/>
<stop offset="1" stop-color="white" stop-opacity="0"/>
</linearGradient>
<linearGradient id="paint9_linear_198_1289" x1="204.404" y1="460" x2="195.404" y2="85" gradientUnits="userSpaceOnUse">
<stop stop-color="#47BCFC"/>
<stop offset="1" stop-color="#078FD1" stop-opacity="0"/>
</linearGradient>
</defs>
</svg>
