<svg width="389" height="967" viewBox="0 0 389 967" fill="none" xmlns="http://www.w3.org/2000/svg">
<path fill-rule="evenodd" clip-rule="evenodd" d="M197.911 772.929L389.225 847.526L198.905 917.697V964.03L386.037 890.07L386.772 891.93L197.916 966.571L2.55646 893.937L3.25343 892.063L196.905 964.061V917.705L0 847.526L197.911 772.929ZM197.899 915.936L383.585 847.474L197.899 775.071L5.8099 847.474L197.899 915.936Z" fill="#1D1D1D"/>
<path fill-rule="evenodd" clip-rule="evenodd" d="M197.911 772.929L389.225 847.526L198.905 917.697V964.03L386.037 890.07L386.772 891.93L197.916 966.571L2.55646 893.937L3.25343 892.063L196.905 964.061V917.705L0 847.526L197.911 772.929ZM197.899 915.936L383.585 847.474L197.899 775.071L5.8099 847.474L197.899 915.936Z" fill="url(#paint0_linear_198_1275)"/>
<path d="M197.904 916L386.404 847.5L197.904 774.5L3.9043 847L197.904 916Z" fill="url(#paint1_linear_198_1275)"/>
<path d="M148.404 0V899" stroke="url(#paint2_linear_198_1275)"/>
<path d="M244.404 0V899" stroke="url(#paint3_linear_198_1275)"/>
<path d="M100.404 0V882" stroke="url(#paint4_linear_198_1275)"/>
<path d="M196.404 0V917" stroke="url(#paint5_linear_198_1275)"/>
<path d="M292.404 0V882" stroke="url(#paint6_linear_198_1275)"/>
<path d="M100.404 545L100.404 685" stroke="url(#paint7_linear_198_1275)" stroke-width="3" stroke-linecap="round"/>
<path d="M196.404 600L196.404 740" stroke="url(#paint8_linear_198_1275)" stroke-width="3" stroke-linecap="round"/>
<path d="M292.404 641L292.404 781" stroke="url(#paint9_linear_198_1275)" stroke-width="3" stroke-linecap="round"/>
<defs>
<linearGradient id="paint0_linear_198_1275" x1="194.405" y1="1022" x2="181.34" y2="776.397" gradientUnits="userSpaceOnUse">
<stop stop-color="white"/>
<stop offset="1" stop-color="white" stop-opacity="0"/>
</linearGradient>
<linearGradient id="paint1_linear_198_1275" x1="204.404" y1="1182.5" x2="195.404" y2="807.5" gradientUnits="userSpaceOnUse">
<stop stop-color="#47BCFC"/>
<stop offset="1" stop-color="#078FD1" stop-opacity="0"/>
</linearGradient>
<linearGradient id="paint2_linear_198_1275" x1="148.904" y1="0" x2="148.904" y2="899" gradientUnits="userSpaceOnUse">
<stop stop-color="#363636" stop-opacity="0"/>
<stop offset="1" stop-color="#363636"/>
</linearGradient>
<linearGradient id="paint3_linear_198_1275" x1="244.904" y1="0" x2="244.904" y2="1127" gradientUnits="userSpaceOnUse">
<stop stop-color="#363636" stop-opacity="0"/>
<stop offset="1" stop-color="#363636"/>
</linearGradient>
<linearGradient id="paint4_linear_198_1275" x1="100.904" y1="0" x2="100.904" y2="1129.5" gradientUnits="userSpaceOnUse">
<stop stop-color="#363636" stop-opacity="0"/>
<stop offset="1" stop-color="#363636"/>
</linearGradient>
<linearGradient id="paint5_linear_198_1275" x1="196.904" y1="0" x2="196.904" y2="1132" gradientUnits="userSpaceOnUse">
<stop stop-color="#363636" stop-opacity="0"/>
<stop offset="1" stop-color="#363636"/>
</linearGradient>
<linearGradient id="paint6_linear_198_1275" x1="292.904" y1="0" x2="292.904" y2="1134" gradientUnits="userSpaceOnUse">
<stop stop-color="#363636" stop-opacity="0"/>
<stop offset="1" stop-color="#363636"/>
</linearGradient>
<linearGradient id="paint7_linear_198_1275" x1="100.904" y1="685" x2="100.904" y2="545" gradientUnits="userSpaceOnUse">
<stop stop-color="white"/>
<stop offset="1" stop-color="white" stop-opacity="0"/>
</linearGradient>
<linearGradient id="paint8_linear_198_1275" x1="196.904" y1="740" x2="196.904" y2="600" gradientUnits="userSpaceOnUse">
<stop stop-color="white"/>
<stop offset="1" stop-color="white" stop-opacity="0"/>
</linearGradient>
<linearGradient id="paint9_linear_198_1275" x1="292.904" y1="781" x2="292.904" y2="641" gradientUnits="userSpaceOnUse">
<stop stop-color="white"/>
<stop offset="1" stop-color="white" stop-opacity="0"/>
</linearGradient>
</defs>
</svg>
