<svg width="30" height="25" viewBox="0 0 30 25" fill="none" xmlns="http://www.w3.org/2000/svg">
<path d="M30 3.04486C28.9286 3.52563 27.7041 3.84615 26.4796 4.00641C27.7041 3.20513 28.7755 1.92308 29.2347 0.480774C28.0102 1.28206 26.7857 1.76282 25.2551 2.08334C24.1837 0.801287 22.5 0 20.8163 0C17.449 0 14.6939 2.88461 14.6939 6.41025C14.6939 6.89102 14.6939 7.37178 14.8469 7.85255C9.79592 7.53204 5.20407 4.96794 2.14285 1.12179C1.68366 2.08333 1.37754 3.20512 1.37754 4.32692C1.37754 6.57051 2.44898 8.49359 4.13265 9.61538C3.06122 9.61538 2.14285 9.29487 1.37754 8.8141C1.37754 11.859 3.5204 14.5833 6.2755 15.0641C5.81632 15.2243 5.20408 15.2244 4.59184 15.2244C4.13266 15.2244 3.82653 15.2243 3.36734 15.0641C4.13265 17.6282 6.42857 19.5513 9.18368 19.5513C7.04082 21.3141 4.43878 22.2756 1.53061 22.2756C1.07143 22.2756 0.612245 22.2756 0 22.1154C2.7551 23.8782 5.96939 25 9.4898 25C20.8163 25 26.9388 15.2243 26.9388 6.73076V5.92948C28.1633 5.44871 29.2347 4.32691 30 3.04486Z" fill="white"/>
</svg>
