<svg width="17" height="17" viewBox="0 0 17 17" fill="none" xmlns="http://www.w3.org/2000/svg">
<path fill-rule="evenodd" clip-rule="evenodd" d="M7.52457 1.03917C6.84731 1.13527 6.25328 1.29459 5.64087 1.54439C3.92147 2.2457 2.51605 3.57778 1.71238 5.26784C1.22854 6.2853 1 7.32013 1 8.49339C1 9.4025 1.09976 10.0354 1.37524 10.8738C2.27132 13.6011 4.66354 15.5682 7.54316 15.9457C8.0245 16.0088 8.97702 16.0087 9.4598 15.9455C12.0683 15.604 14.2914 13.953 15.359 11.5643C15.6592 10.8925 15.8551 10.1953 15.9526 9.45153C16.0158 8.96929 16.0158 8.01727 15.9525 7.53399C15.5239 4.26 13.0441 1.6687 9.78172 1.08558C9.28279 0.996387 8.01047 0.97023 7.52457 1.03917ZM9.11447 2.17926C9.34257 2.2923 9.44224 2.36781 9.69022 2.61544C9.85513 2.78017 10.0701 3.03647 10.1677 3.18497C10.5091 3.70366 10.848 4.47161 11.0452 5.17289C11.0894 5.33003 11.1255 5.46638 11.1255 5.47591C11.1255 5.48544 9.94423 5.49322 8.5004 5.49322C7.05658 5.49322 5.87526 5.48544 5.87526 5.47591C5.87526 5.46638 5.91142 5.33003 5.95558 5.17289C6.15278 4.47161 6.49173 3.70366 6.83306 3.18497C7.0673 2.82895 7.54588 2.35393 7.81121 2.21405C8.11913 2.05169 8.2332 2.02394 8.55231 2.03376C8.81905 2.04194 8.85745 2.05191 9.11447 2.17926ZM5.88595 2.76651C5.44652 3.46268 5.03681 4.45511 4.86018 5.25102L4.80642 5.49322H3.7939C3.237 5.49322 2.78135 5.48213 2.78135 5.4686C2.78135 5.45503 2.86269 5.31053 2.96214 5.14742C3.60508 4.09293 4.53672 3.23882 5.63909 2.69323C5.86157 2.58313 6.04696 2.49306 6.05105 2.49306C6.05518 2.49306 5.98086 2.61613 5.88595 2.76651ZM11.4456 2.7337C12.4925 3.26607 13.4154 4.12512 14.0387 5.14742C14.1381 5.31053 14.2195 5.45503 14.2195 5.4686C14.2195 5.48213 13.7638 5.49322 13.2069 5.49322H12.1944L12.1412 5.25102C11.9555 4.40432 11.5101 3.36111 11.0055 2.59054C10.958 2.51813 10.9588 2.51675 11.0333 2.53956C11.0754 2.55244 11.261 2.63982 11.4456 2.7337ZM4.61344 6.59485C4.46731 7.38876 4.46734 9.59829 4.61354 10.3923L4.63229 10.4943L3.48145 10.4861L2.3306 10.4779L2.25851 10.2279C2.10997 9.71273 2.05549 9.32193 2.0394 8.6558C2.0274 8.15912 2.03571 7.93851 2.07768 7.64012C2.12537 7.30145 2.28504 6.59438 2.33042 6.52094C2.33982 6.50572 2.86141 6.49328 3.48982 6.49328H4.63216L4.61344 6.59485ZM11.3443 6.51162C11.3443 6.52172 11.3686 6.70804 11.3983 6.92571C11.4758 7.49346 11.4755 9.48756 11.3979 10.0611C11.3684 10.2787 11.3443 10.4651 11.3443 10.4751C11.3443 10.4852 10.0666 10.4935 8.50484 10.4935H5.66538L5.62953 10.22C5.49318 9.17945 5.49318 7.80732 5.62953 6.76673L5.66538 6.49328H8.50484C10.0666 6.49328 11.3443 6.50153 11.3443 6.51162ZM14.7553 6.81004C14.925 7.42198 14.9536 7.66572 14.9531 8.49339C14.9525 9.31255 14.9132 9.63573 14.7424 10.2279L14.6702 10.4779L13.5194 10.4861L12.3685 10.4943L12.3866 10.3923C12.4602 9.9765 12.485 9.49869 12.485 8.49339C12.485 7.48808 12.4602 7.01027 12.3866 6.59447L12.3685 6.4925L13.5201 6.50072L14.6717 6.5089L14.7553 6.81004ZM4.85958 11.7357C5.02834 12.505 5.45411 13.5361 5.88479 14.2184L6.05624 14.49L5.87979 14.4121C4.70179 13.8915 3.64546 12.9601 2.96214 11.8393C2.86269 11.6762 2.78135 11.5317 2.78135 11.5182C2.78135 11.5046 3.237 11.4935 3.7939 11.4935H4.80642L4.85958 11.7357ZM11.1255 11.5109C11.1255 11.5204 11.0894 11.6567 11.0452 11.8139C10.848 12.5152 10.5091 13.2831 10.1677 13.8018C10.0701 13.9503 9.85513 14.2066 9.69022 14.3713C9.44139 14.6198 9.34292 14.6943 9.11178 14.8089C8.83508 14.946 8.83108 14.9469 8.5004 14.9469C8.17173 14.9469 8.16417 14.9452 7.89975 14.8142C7.20493 14.4699 6.5913 13.6206 6.13759 12.3753C6.04593 12.1237 5.87526 11.5614 5.87526 11.5109C5.87526 11.5013 7.05658 11.4935 8.5004 11.4935C9.94423 11.4935 11.1255 11.5013 11.1255 11.5109ZM14.2195 11.5182C14.2195 11.5317 14.1381 11.6762 14.0387 11.8393C13.5441 12.6504 12.8477 13.3725 12.0475 13.9038C11.7667 14.0902 11.0135 14.486 10.9882 14.4604C10.9809 14.4529 11.0445 14.3343 11.1295 14.1968C11.5672 13.4889 11.9733 12.501 12.1412 11.7357L12.1944 11.4935H13.2069C13.7638 11.4935 14.2195 11.5046 14.2195 11.5182Z" fill="#F1F1F1"/>
</svg>
